            <svg xmlns="http://www.w3.org/2000/svg" id="svg60" width="143.225" height="96" font-family="Menlo, 'Lucida Console', monospace"> <style id="style1" type="text/css"> text{text-anchor:middle;font-family:"Menlo","Lucida Console","monospace";fill:#ffffff;font-size:1em} </style>
                <g id="g60" transform="translate(-4.388 -15.875)"><text id="text2" x="88" y="20">▄</text><text id="text3" x="96" y="20">▄</text><text id="text4" x="88" y="36">█</text><text id="text5" x="96" y="36">█</text><text id="text6" x="8" y="52">█</text><text id="text7" x="16" y="52">█</text><text id="text8" x="24" y="52">▄</text><text id="text9" x="32" y="52">█</text><text id="text10" x="40" y="52">█</text><text id="text11" x="48" y="52">█</text><text id="text12" x="56" y="52">█</text><text id="text13" x="64" y="52">▄</text><text id="text14" x="88" y="52">█</text><text id="text15" x="96" y="52">█</text><text id="text16" x="104" y="52">▄</text><text id="text17" x="112" y="52">█</text><text id="text18" x="120" y="52">█</text><text id="text19" x="128" y="52">█</text><text id="text20" x="136" y="52">▄</text><text id="text21" x="8" y="68">█</text><text id="text22" x="16" y="68">█</text><text id="text23" x="24" y="68">▀</text><text id="text24" x="56" y="68">█</text><text id="text25" x="64" y="68">█</text><text id="text26" x="88" y="68">█</text><text id="text27" x="96" y="68">█</text><text id="text28" x="104" y="68">▀</text><text id="text29" x="128" y="68">▀</text><text id="text30" x="136" y="68">█</text><text id="text31" x="144" y="68">█</text><text id="text32" x="8" y="84">█</text><text id="text33" x="16" y="84">█</text><text id="text34" x="56" y="84">█</text><text id="text35" x="64" y="84">█</text><text id="text36" x="88" y="84">█</text><text id="text37" x="96" y="84">█</text><text id="text38" x="136" y="84">█</text><text id="text39" x="144" y="84">█</text><text id="text40" x="8" y="100">█</text><text id="text41" x="16" y="100">█</text><text id="text42" x="56" y="100">█</text><text id="text43" x="64" y="100">█</text><text id="text44" x="88" y="100">█</text><text id="text45" x="96" y="100">█</text><text id="text46" x="104" y="100">█</text><text id="text47" x="112" y="100">▄</text><text id="text48" x="120" y="100">▄</text><text id="text49" x="128" y="100">█</text><text id="text50" x="136" y="100">█</text><text id="text51" x="144" y="100">▀</text><text id="text52" x="8" y="116">▀</text><text id="text53" x="16" y="116">▀</text><text id="text54" x="56" y="116">▀</text><text id="text55" x="64" y="116">▀</text><text id="text56" x="88" y="116">▀</text><text id="text57" x="96" y="116">▀</text><text id="text58" x="112" y="116">▀</text><text id="text59" x="120" y="116">▀</text><text id="text60" x="128" y="116">▀</text></g></svg>
