<?xml version="1.0" encoding="UTF-8" standalone="no"?>
<svg
 viewBox="0 0 55.711628 49.705524">
        <path
                d="m 33.107049,42.398406 v -1.475735 h -0.84954 c -2.90293,0 -3.58739,-0.339811 -4.09711,-1.93692 L 17.694299,8.7234095 c -0.22814,-0.631073 -0.3398,-0.97088 -1.082532,-0.97088 -0.79611,0 -0.91262,0.291265 -1.19419,0.97088 L 5.402956,37.679919 C 4.553436,40.126552 2.616525,40.864405 0,40.92267 v 1.475736 l 4.951498,-0.169936 5.572849,0.169936 V 40.92267 c -2.446633,0 -3.640806,-1.252448 -3.640806,-2.504877 0,-0.111662 0.05824,-0.626224 0.111662,-0.679629 l 2.218464,-6.373818 h 11.946672 l 2.56314,7.393244 a 3.3980817,3.3980817 0 0 1 0.11166,0.679631 c 0,1.48545 -2.66993,1.48545 -3.98062,1.48545 v 1.475735 c 1.70391,-0.169936 5.12141,-0.169936 6.9418,-0.169936 z M 20.597239,29.883748 H 9.728227 l 5.40296,-15.699143 z m 0,0"
                aria-label="A"
                style="fill:#000000;fill-opacity:1;fill-rule:nonzero;stroke:none;stroke-width:4.85443"
                id="path2" />
        <path
                d="M 45.882649,1.1941841 V 0 c -1.36409,0.058253 -2.78642,0.111641 -4.09711,0.111641 -1.35924,0 -2.78642,-0.053407 -4.09226,-0.111641 v 1.1941841 c 3.47088,0 3.47088,1.5339899 3.47088,2.4466177 V 15.242824 c 0,4.665082 -3.58737,7.281605 -7.11168,7.281605 -1.99032,0 -6.20393,-1.019424 -6.20393,-7.106852 V 2.728174 c 0,-1.1359308 0.0582,-1.5339899 2.67477,-1.5339899 h 0.79613 V 0 L 26.256299,0.111641 21.139779,0 v 1.1941841 h 0.8495 c 2.56314,0 2.67478,0.3398058 2.67478,1.5339899 v 12.572902 c 0,4.893233 4.32042,8.475791 9.33017,8.475791 a 8.3495724,8.3495724 0 0 0 8.36413,-8.417533 V 3.6359474 c 0,-0.9126276 0,-2.4466191 3.52429,-2.4466191 m 0,0"
                aria-label="U"
                style="fill:#000000;fill-opacity:1;fill-rule:nonzero;stroke:none;stroke-width:4.85443"
                id="path3" />
        <path
                d="m 55.711629,49.705526 v -1.194207 h -0.68448 c -2.21845,0 -2.62135,-0.339801 -3.24274,-1.194183 l -8.01946,-10.582594 5.23304,-6.825287 c 1.59225,-2.048556 4.15052,-2.106823 5.11654,-2.106823 v -1.194171 a 82.524842,82.524842 0 0 1 -3.75245,0.116599 l -4.49517,-0.116599 v 1.194171 c 1.53883,0.05824 1.87864,1.02429 1.87864,1.368963 0,0.451447 -0.16993,0.626215 -0.45631,0.907755 l -4.26701,5.631115 -4.89324,-6.427235 c -0.28156,-0.339796 -0.28156,-0.456308 -0.28156,-0.509713 0,-0.456307 0.79612,-0.912617 1.9903,-0.970884 v -1.194172 l -5.17478,0.1166 c -1.59226,0 -4.21361,-0.1166 -4.38353,-0.1166 v 1.194172 h 0.63107 c 2.04371,0 2.61167,0.228166 3.29614,1.140801 l 6.9418,9.271895 -6.20393,8.019487 c -0.67962,0.912627 -1.93206,2.276703 -5.1748,2.276703 v 1.194207 c 1.25245,-0.111662 2.50001,-0.111662 3.75246,-0.111662 1.59225,0 4.32041,0.111662 4.49518,0.111662 v -1.194207 c -1.42235,-0.111662 -1.87866,-0.90777 -1.87866,-1.422335 0,-0.111661 0,-0.456317 0.39806,-0.907764 l 5.34955,-7.000066 5.97091,7.912682 c 0.0582,0.04862 0.22815,0.339801 0.22815,0.451458 0,0.398057 -0.62621,0.907769 -1.9903,0.966025 v 1.194207 l 5.17964,-0.111662 c 1.59226,0 4.20876,0.111662 4.43693,0.111662 m 0,0"
                aria-label="X"
                style="fill:#000000;fill-opacity:1;fill-rule:nonzero;stroke:none;stroke-width:4.85443"
                id="path4" />
        <path
                style="fill:#000000;stroke-width:0.564778"
                d=""
                id="path6" />
</svg>
